<?xml version="1.0" encoding="UTF-8" standalone="no"?>
<!-- Created with Inkscape (http://www.inkscape.org/) -->

<svg
   width="400mm"
   height="200mm"
   viewBox="0 0 400 200"
   version="1.1"
   id="svg1"
   inkscape:export-filename="..\..\Desktop\echoes\src\assets\echo.svg"
   inkscape:export-xdpi="25.4"
   inkscape:export-ydpi="25.4"
   inkscape:version="1.3 (0e150ed6c4, 2023-07-21)"
   sodipodi:docname="echo.svg"
   xmlns:inkscape="http://www.inkscape.org/namespaces/inkscape"
   xmlns:sodipodi="http://sodipodi.sourceforge.net/DTD/sodipodi-0.dtd"
   xmlns="http://www.w3.org/2000/svg"
   xmlns:svg="http://www.w3.org/2000/svg">
  <sodipodi:namedview
     id="namedview1"
     pagecolor="#ffffff"
     bordercolor="#000000"
     borderopacity="0.25"
     inkscape:showpageshadow="2"
     inkscape:pageopacity="0.0"
     inkscape:pagecheckerboard="0"
     inkscape:deskcolor="#d1d1d1"
     inkscape:document-units="mm"
     inkscape:zoom="0.30992466"
     inkscape:cx="879.24593"
     inkscape:cy="471.08222"
     inkscape:window-width="1280"
     inkscape:window-height="730"
     inkscape:window-x="-6"
     inkscape:window-y="-6"
     inkscape:window-maximized="1"
     inkscape:current-layer="layer1" />
  <defs
     id="defs1" />
  <g
     inkscape:label="图层 1"
     inkscape:groupmode="layer"
     id="layer1">
    <path
       style="font-weight:900;font-size:38.1px;line-height:1.5;font-family:Arial;-inkscape-font-specification:'Arial, Heavy';text-align:center;letter-spacing:5.29167px;word-spacing:2.64583px;text-anchor:middle;fill:#4ca2b2;fill-opacity:1;stroke-width:0;stroke-linecap:round;stroke-linejoin:round"
       d="m 36.525107,31.467677 h 55.948475 v 17.88805 H 57.448158 V 62.67175 H 89.93883 V 79.759695 H 57.448158 V 96.276144 H 93.487447 V 115.2501 h -56.96234 z m 126.296253,49.549324 18.29617,6.858034 q -1.84347,9.54411 -5.80687,15.944965 -3.96338,6.40086 -9.86239,9.65843 -5.85294,3.25756 -14.93189,3.25756 -11.01457,0 -18.01963,-3.94337 -6.959,-4.00053 -12.02846,-14.001863 -5.06948,-10.001305 -5.06948,-25.603347 0,-20.802718 8.8946,-31.947028 8.94069,-11.201464 25.25518,-11.201464 12.76582,0 20.04743,6.400836 7.32767,6.400835 10.8763,19.659711 l -18.43443,5.086378 q -0.96778,-3.829072 -2.02777,-5.600733 -1.75128,-2.971817 -4.286,-4.572025 -2.53474,-1.600206 -5.66859,-1.600206 -7.09727,0 -10.87631,7.086636 -2.85734,5.257831 -2.85734,16.516443 0,13.94468 3.41037,19.145364 3.41037,5.143518 9.5859,5.143518 5.99119,0 9.03286,-4.171969 3.08775,-4.171968 4.47035,-12.11587 z m 41.63619,-49.549324 h 20.87699 V 60.78579 h 22.81259 V 31.467677 h 20.96914 V 115.2501 H 248.14713 V 81.359903 H 225.33454 V 115.2501 h -20.87699 z m 89.01266,41.948334 q 0,-20.516966 9.2172,-31.947029 9.21721,-11.430064 25.66993,-11.430064 16.86749,0 25.99253,11.258611 9.12502,11.201463 9.12502,31.43268 0,14.68763 -4.00947,24.117435 -3.96341,9.372676 -11.52152,14.630526 -7.51202,5.20066 -18.75702,5.20066 -11.42934,0 -18.94135,-4.51487 -7.46594,-4.51487 -12.12064,-14.287607 -4.65468,-9.772707 -4.65468,-24.460342 z m 20.87697,0.114318 q 0,12.687369 3.77905,18.230957 3.82515,5.54358 10.36938,5.54358 6.72854,0 10.41542,-5.429288 3.68688,-5.42928 3.68688,-19.488258 0,-11.830115 -3.8712,-17.259396 -3.82515,-5.486428 -10.41548,-5.486428 -6.31377,0 -10.1389,5.543581 -3.82515,5.543576 -3.82515,18.345252 z"
       id="text10"
       aria-label="ECHO" />
    <path
       style="font-weight:bold;font-stretch:condensed;font-size:14.8167px;line-height:1.5;font-family:Arial;-inkscape-font-specification:'Arial, Bold Condensed';text-align:center;letter-spacing:0.264583px;text-anchor:middle;fill:#4ca2b2;fill-opacity:1;stroke-width:0;stroke-linecap:round;stroke-linejoin:round"
       d="M 11.495787,170.64874 V 149.3079 h 3.309621 v 17.71554 h 8.260399 v 3.6253 z m 14.449825,0 v -21.51698 h 12.199131 v 3.63999 h -8.889511 v 4.77013 h 8.260399 v 3.62531 h -8.260399 v 5.85625 h 9.190379 v 3.6253 z m 30.628715,0 h -3.610513 l -1.435984,-4.88756 h -6.564562 l -1.35393,4.88756 h -3.528445 l 6.40044,-21.51698 h 3.514769 z m -6.113235,-8.51284 -2.256571,-7.9845 -2.229219,7.9845 z m 10.880338,8.51284 -5.867057,-21.51698 h 3.596824 l 4.157545,15.92492 4.020799,-15.92492 h 3.528445 l -5.880746,21.51698 z m 11.632546,0 v -21.51698 h 12.199131 v 3.63999 h -8.889511 v 4.77013 h 8.260399 v 3.62531 h -8.260399 v 5.85625 h 9.190379 v 3.6253 z m 36.681394,0 h -3.61051 l -1.43599,-4.88756 h -6.564558 l -1.35393,4.88756 h -3.528445 l 6.400439,-21.51698 h 3.514774 z m -6.11325,-8.51284 -2.25655,-7.9845 -2.229224,7.9845 z m 14.45764,8.51284 v -21.51698 h 3.22758 l 6.72867,14.36913 v -14.36913 h 3.09079 v 21.51698 h -3.33698 l -6.61924,-14.03154 v 14.03154 z m 16.37816,-10.62639 q 0,-3.84546 1.05308,-6.32593 1.06672,-2.49516 2.77625,-3.71337 1.70951,-1.21823 4.14387,-1.21823 3.52846,0 5.74397,2.89145 2.22922,2.89143 2.22922,8.23399 0,5.40125 -2.35229,8.43947 -2.06509,2.68595 -5.60721,2.68595 -3.56948,0 -5.63459,-2.65659 -2.3523,-3.03822 -2.3523,-8.33674 z m 3.41904,-0.14688 q 0,3.71336 1.3129,5.57739 1.31293,1.84935 3.25495,1.84935 1.95567,0 3.24122,-1.83466 1.28558,-1.84936 1.28558,-5.66546 0,-3.74273 -1.25822,-5.53336 -1.24453,-1.79065 -3.26858,-1.79065 -2.02409,0 -3.29596,1.80532 -1.27189,1.80532 -1.27189,5.59207 z m 19.31855,10.77317 v -17.87699 h -4.8824 v -3.63998 h 13.06073 v 3.63998 h -4.86871 v 17.87699 z m 10.83931,0 v -21.51697 h 12.19913 v 3.63998 h -8.88948 v 4.77012 h 8.26037 v 3.62531 h -8.26037 v 5.85627 h 9.19035 v 3.62529 z m 15.70805,-4.12433 h 3.14551 v 2.95016 q 0,2.50982 -0.54706,3.72803 -0.67012,1.51177 -2.24287,2.24564 l -0.61542,-1.70257 q 0.92997,-0.41096 1.34025,-1.11548 0.41029,-0.68984 0.43764,-1.98145 h -1.51805 z m 13.03531,-2.87677 3.24126,-0.41096 q 0.54704,4.12434 3.58315,4.12434 1.50439,0 2.36596,-0.83661 0.8616,-0.8513 0.8616,-2.09887 0,-0.73385 -0.30087,-1.24757 -0.30088,-0.5137 -0.9163,-0.83661 -0.61542,-0.33755 -2.9814,-1.11545 -2.1198,-0.68986 -3.10448,-1.49712 -0.9847,-0.80725 -1.57276,-2.11353 -0.57441,-1.32096 -0.57441,-2.83274 0,-1.76126 0.73853,-3.17028 0.75219,-1.40903 2.06509,-2.12822 1.31291,-0.71919 3.24125,-0.71919 2.89935,0 4.52681,1.68788 1.62745,1.68791 1.72318,4.82885 l -3.32329,0.1909 q -0.21883,-1.73193 -0.94366,-2.42176 -0.72484,-0.68984 -2.06509,-0.68984 -1.34027,0 -2.0651,0.60177 -0.72483,0.60176 -0.72483,1.49709 0,0.88063 0.65644,1.48241 0.65646,0.60177 3.02243,1.32096 2.50274,0.7779 3.61051,1.64386 1.12144,0.85128 1.70951,2.21628 0.58807,1.35032 0.58807,3.28773 0,2.80336 -1.61377,4.71141 -1.60013,1.90808 -5.01917,1.90808 -6.04484,0 -6.72866,-7.38273 z m 16.66537,7.0011 v -21.51697 h 3.30962 v 8.46881 h 6.50983 v -8.46881 h 3.32333 v 21.51697 H 223.183 v -9.40817 h -6.50983 v 9.40817 z m 31.8869,0 h -3.6105 l -1.43599,-4.88755 h -6.56455 l -1.35395,4.88755 h -3.52843 l 6.40043,-21.51697 h 3.51478 z m -6.11322,-8.51285 -2.25657,-7.98448 -2.22922,7.98448 z m 8.37759,8.51285 v -21.51697 h 6.98851 q 2.68055,0 3.82934,0.58709 1.14879,0.57241 1.88731,2.01078 0.73851,1.42371 0.73851,3.41982 0,2.52451 -1.13512,4.06564 -1.12145,1.54111 -3.20021,1.93741 1.06672,0.82193 1.7642,1.8053 0.69749,0.96871 1.901,3.4932 l 1.99672,4.19773 h -3.95241 l -2.40699,-4.68206 q -1.29924,-2.53919 -1.76423,-3.17031 -0.46499,-0.64581 -0.98468,-0.88064 -0.5197,-0.24951 -1.6685,-0.24951 h -0.6838 v 8.98252 z m 3.30965,-12.41704 h 2.46169 q 2.25657,0 2.87201,-0.20547 0.61542,-0.22015 0.99834,-0.86596 0.38294,-0.6458 0.38294,-1.71724 0,-1.02742 -0.38294,-1.64387 -0.38292,-0.63112 -1.03938,-0.86597 -0.46499,-0.16148 -2.6942,-0.16148 h -2.59846 z m 13.76601,12.41704 v -21.51697 h 12.19913 v 3.63998 h -8.88952 v 4.77012 h 8.2604 v 3.62531 h -8.2604 v 5.85627 h 9.19038 v 3.62529 z m 36.68139,0 h -3.61049 l -1.43601,-4.88755 h -6.56455 l -1.35394,4.88755 h -3.52844 l 6.40044,-21.51697 h 3.51476 z m -6.11324,-8.51285 -2.25655,-7.98448 -2.22921,7.98448 z m 14.43029,8.51285 v -21.51697 h 3.30963 v 8.46881 h 6.50986 v -8.46881 h 3.32331 v 21.51697 h -3.32331 v -9.40817 h -6.50986 v 9.40817 z m 17.07563,0 v -21.51697 h 12.19913 v 3.63998 h -8.88949 v 4.77012 h 8.26039 v 3.62531 h -8.26039 v 5.85627 h 9.19035 v 3.62529 z m 30.62871,0 h -3.6105 l -1.436,-4.88755 h -6.56455 l -1.35394,4.88755 h -3.52843 l 6.40041,-21.51697 h 3.5148 z m -6.11322,-8.51285 -2.25657,-7.98448 -2.22922,7.98448 z m 8.37761,8.51285 v -21.51697 h 6.98852 q 2.68053,0 3.82931,0.58709 1.1488,0.57241 1.88731,2.01078 0.73852,1.42371 0.73852,3.41982 0,2.52451 -1.13512,4.06564 -1.12145,1.54111 -3.20022,1.93741 1.06673,0.82193 1.76421,1.8053 0.69749,0.96871 1.901,3.4932 l 1.99672,4.19773 h -3.95242 l -2.40701,-4.68206 q -1.29922,-2.53919 -1.76421,-3.17031 -0.46499,-0.64581 -0.98468,-0.88064 -0.51968,-0.24951 -1.66849,-0.24951 h -0.68382 v 8.98252 z m 3.30962,-12.41704 h 2.46171 q 2.25657,0 2.872,-0.20547 0.61542,-0.22015 0.99837,-0.86596 0.38292,-0.6458 0.38292,-1.71724 0,-1.02742 -0.38292,-1.64387 -0.38295,-0.63112 -1.0394,-0.86597 -0.46499,-0.16148 -2.6942,-0.16148 h -2.59848 z m 17.45861,12.41704 v -17.87699 h -4.88239 v -3.63998 h 13.06072 v 3.63998 h -4.86871 v 17.87699 z"
       id="text9"
       aria-label="LEAVE A NOTE, SHARE A HEART" />
  </g>
</svg>
