<?xml version="1.0" encoding="UTF-8" standalone="no"?>
<!-- Created with Inkscape (http://www.inkscape.org/) -->

<svg
   width="400mm"
   height="200mm"
   viewBox="0 0 400 200"
   version="1.1"
   id="svg1"
   inkscape:export-filename="echo.svg"
   inkscape:export-xdpi="25.4"
   inkscape:export-ydpi="25.4"
   xmlns:inkscape="http://www.inkscape.org/namespaces/inkscape"
   xmlns:sodipodi="http://sodipodi.sourceforge.net/DTD/sodipodi-0.dtd"
   xmlns="http://www.w3.org/2000/svg"
   xmlns:svg="http://www.w3.org/2000/svg">
  <sodipodi:namedview
     id="namedview1"
     pagecolor="#ffffff"
     bordercolor="#000000"
     borderopacity="0.25"
     inkscape:showpageshadow="2"
     inkscape:pageopacity="0.0"
     inkscape:pagecheckerboard="0"
     inkscape:deskcolor="#d1d1d1"
     inkscape:document-units="mm"
     inkscape:zoom="0.61984933"
     inkscape:cx="1010.7295"
     inkscape:cy="382.35098"
     inkscape:window-width="1280"
     inkscape:window-height="730"
     inkscape:window-x="-6"
     inkscape:window-y="-6"
     inkscape:window-maximized="1"
     inkscape:current-layer="layer1" />
  <defs
     id="defs1" />
  <g
     inkscape:label="图层 1"
     inkscape:groupmode="layer"
     id="layer1">
    <path
       id="rect1"
       style="opacity:1;fill:#08d9d6;stroke-width:0;stroke-linecap:round;stroke-linejoin:round"
       inkscape:transform-center-y="1.0628059"
       d="M 26.54562,7.9854277 C 14.450541,7.8860669 4.8619301,17.736167 5.0479902,30.070953 l 2.087289,138.314467 c 0.1860585,12.33476 10.0730428,22.34606 22.1681218,22.44542 l 144.152289,1.18373 c 12.09503,0.0993 21.68238,-9.75076 21.49632,-22.08551 l -2.086,-138.315799 C 192.67995,19.278475 182.79302,9.2685222 170.69789,9.1691552 Z M 61.628269,27.327592 c 0.937611,0 1.847626,0.111405 2.727715,0.302596 h 80.078956 c 3.81861,-1e-6 6.89313,3.135684 6.89313,7.030362 l 1e-5,5.858638 c -1e-5,3.894702 -3.07449,7.03036 -6.89316,7.030361 l -69.85161,2e-6 v 43.444541 h 65.81167 c 3.81865,0 6.89315,3.135665 6.89313,7.030363 l 2e-5,5.858645 c 0,3.89468 -3.0745,7.02903 -6.89315,7.02903 H 74.58331 v 41.19574 l 69.68039,-2e-5 c 3.81868,2e-5 6.89185,3.13566 6.89185,7.03039 l -2e-5,5.85862 c 2e-5,3.89473 -3.07315,7.02903 -6.89183,7.02905 H 65.442112 c -1.212376,0.38067 -2.475841,0.64517 -3.813844,0.64517 -7.177125,-1e-5 -12.95504,-5.89291 -12.955043,-13.21293 l 3e-6,-118.917634 c 0,-7.320004 5.777915,-13.212923 12.955041,-13.212924 z"
       inkscape:transform-center-x="-1.8560431e-06" />
    <text
       xml:space="preserve"
       style="font-style:normal;font-variant:normal;font-weight:bold;font-stretch:normal;font-size:14.8167px;line-height:1.5;font-family:'AnonymicePro Nerd Font Mono';-inkscape-font-specification:'AnonymicePro Nerd Font Mono, Bold';font-variant-ligatures:normal;font-variant-caps:normal;font-variant-numeric:normal;font-variant-east-asian:normal;text-align:center;letter-spacing:0.264583px;text-anchor:middle;opacity:1;fill:#252a34;fill-opacity:1;stroke-width:0;stroke-linecap:round;stroke-linejoin:round;stroke-dasharray:none"
       x="298.79572"
       y="135.73863"
       id="text9"><tspan
         sodipodi:role="line"
         id="tspan8"
         style="font-style:normal;font-variant:normal;font-weight:bold;font-stretch:condensed;font-size:14.8167px;font-family:Arial;-inkscape-font-specification:'Arial, Bold Condensed';font-variant-ligatures:normal;font-variant-caps:normal;font-variant-numeric:normal;font-variant-east-asian:normal;letter-spacing:0.264583px;stroke-width:0"
         x="298.92801"
         y="135.73863">LEAVE A NOTE, SHARE A HEART</tspan></text>
    <path
       style="font-weight:900;font-size:38.1px;line-height:1.5;font-family:Arial;-inkscape-font-specification:'Arial, Heavy';text-align:center;letter-spacing:5.29167px;word-spacing:2.64583px;text-anchor:middle;fill:#252a34;stroke-width:0;stroke-linecap:round;stroke-linejoin:round"
       d="m 209.4139,57.482924 h 29.59688 v 8.817329 h -18.52853 v 6.563698 h 17.18764 v 8.422944 h -17.18764 v 8.141241 h 19.06487 v 9.352571 H 209.4139 Z m 66.81103,24.423719 9.67872,3.380446 q -0.9752,4.704454 -3.07185,7.859537 -2.09664,3.155081 -5.21723,4.760791 -3.09622,1.60571 -7.89901,1.60571 -5.82673,0 -9.53243,-1.94375 -3.68132,-1.97193 -6.36308,-6.901746 -2.68177,-4.929816 -2.68177,-12.620329 0,-10.25402 4.70527,-15.747243 4.72965,-5.521395 13.36005,-5.521395 6.75315,0 10.60514,3.155083 3.87636,3.155082 5.75359,9.690611 l -9.75186,2.507164 q -0.51196,-1.887416 -1.07269,-2.760698 -0.92644,-1.46486 -2.26731,-2.25363 -1.34088,-0.78877 -2.9987,-0.78877 -3.75447,0 -5.75359,3.493126 -1.51154,2.591676 -1.51154,8.14124 0,6.873574 1.80409,9.437078 1.8041,2.535334 5.07097,2.535334 3.16935,0 4.7784,-2.056438 1.63343,-2.056437 2.36483,-5.972121 z m 22.02565,-24.423719 h 11.04397 v 14.451405 h 12.06792 V 57.482924 H 332.4552 V 98.780707 H 321.36247 V 82.075665 h -12.06792 v 16.705042 h -11.04397 z m 47.08791,20.677059 q 0,-10.113167 4.87592,-15.747243 4.87593,-5.634076 13.57946,-5.634076 8.92294,0 13.75011,5.549564 4.82716,5.521395 4.82716,15.493711 0,7.239787 -2.12102,11.8879 -2.09665,4.619942 -6.09491,7.211618 -3.97388,2.5635 -9.92251,2.5635 -6.04615,0 -10.02002,-2.22546 -3.9495,-2.22546 -6.41185,-7.042591 -2.46234,-4.817135 -2.46234,-12.056923 z m 11.04397,0.05635 q 0,6.253824 1.99913,8.986351 2.02351,2.732527 5.48542,2.732527 3.55942,0 5.50979,-2.676187 1.95037,-2.676186 1.95037,-9.6061 0,-5.831268 -2.04788,-8.507454 -2.02351,-2.704356 -5.50981,-2.704356 -3.34,0 -5.36351,2.732527 -2.02351,2.732525 -2.02351,9.042692 z"
       id="text10"
       aria-label="ECHO" />
  </g>
</svg>
